<svg width="144" height="62" viewBox="0 0 144 62" fill="none" xmlns="http://www.w3.org/2000/svg">
<path d="M50.6383 28.5892C50.3713 28.3762 50.0089 28.2076 49.5416 28.0656C49.0743 27.9325 48.464 27.8615 47.7106 27.8615C46.9477 27.8615 46.3278 27.9325 45.8605 28.0656C45.3932 28.1987 45.0309 28.3762 44.7638 28.5892C44.5064 28.8022 44.3347 29.033 44.2489 29.2903C44.163 29.5477 44.1154 29.7962 44.1154 30.027V30.1601C44.1154 30.3997 44.163 30.6482 44.2489 30.9145C44.3442 31.1807 44.5159 31.4204 44.7829 31.6422C45.0499 31.8641 45.4123 32.0505 45.8796 32.1925C46.3469 32.3345 46.9572 32.4055 47.7106 32.4055C48.4544 32.4055 49.0648 32.3345 49.5321 32.1925C49.9994 32.0505 50.3617 31.873 50.6288 31.6511C50.8958 31.4292 51.0674 31.1896 51.1628 30.9322C51.2582 30.666 51.3058 30.4175 51.3058 30.1779V30.0181C51.3058 29.7785 51.2582 29.5388 51.1723 29.2815C51.077 29.033 50.8958 28.7933 50.6383 28.5892Z" fill="white"/>
<path d="M144 13.9543H125.499C124.946 13.3508 124.269 12.8183 123.42 12.3657C122.133 11.6823 120.483 11.1676 118.461 10.8126C116.44 10.4576 114.017 10.2623 111.166 10.2091L106.093 10.1292C104.548 10.1025 103.318 10.0227 102.393 9.88067C101.468 9.73867 100.771 9.56117 100.275 9.33042C99.7891 9.09967 99.4744 8.85117 99.3219 8.57604C99.1693 8.30092 99.1025 8.00804 99.1025 7.70629C99.1025 7.40454 99.1693 7.11166 99.3028 6.81879C99.4363 6.52591 99.7605 6.26854 100.275 6.04666C100.79 5.81591 101.572 5.63841 102.612 5.49641C103.651 5.35441 105.101 5.29228 106.941 5.29228H107.59C109.564 5.29228 111.128 5.41653 112.263 5.67391C113.398 5.92241 114.256 6.23304 114.838 6.57916C115.419 6.93416 115.801 7.29804 115.972 7.67966C116.144 8.06129 116.259 8.38967 116.316 8.66479H126.148V8.28317C126.148 7.22704 125.9 6.16203 125.414 5.10591C124.927 4.04978 124.031 3.10015 122.734 2.24815C121.437 1.40502 119.644 0.721641 117.374 0.189139C115.095 -0.343363 112.177 -0.600739 108.601 -0.600739H105.797C102.354 -0.600739 99.5698 -0.352238 97.4336 0.153639C95.2975 0.659516 93.6191 1.31627 92.4175 2.11502C91.2159 2.92265 90.3958 3.83678 89.9762 4.85741C89.5566 5.87803 89.3468 6.91641 89.3468 7.97254V8.30979C89.3468 9.41917 89.5852 10.4487 90.062 11.4072C90.5293 12.3568 91.3303 13.1999 92.4556 13.9366H85.618V10.4398H63.6461V6.27741H86.1521V-0.112612H54.3099V13.9454H40.0625L52.889 -0.112612H42.2082L32.6623 10.2534L23.2784 -0.103736H11.5391L24.7279 13.9543H0V47.2091H24.7279L27.7033 50.3863V61.276H37.1634V50.3952L40.0625 47.2179H54.3099V61.276H86.5621V54.7351H63.6461V50.1201H85.618V47.2091H92.4556C92.4652 47.2179 92.4747 47.2179 92.4842 47.2268C93.6191 47.9723 95.1354 48.5669 97.0331 49.0196C98.9309 49.4722 101.286 49.7384 104.1 49.8094L109.297 49.9248C111.033 49.9781 112.425 50.0668 113.483 50.2088C114.542 50.3508 115.334 50.5461 115.877 50.7946C116.421 51.0431 116.774 51.3359 116.955 51.6643C117.126 51.9927 117.222 52.3566 117.222 52.7648C117.222 53.1465 117.136 53.5103 116.955 53.8653C116.783 54.2203 116.383 54.5398 115.772 54.8327C115.162 55.1256 114.265 55.3475 113.092 55.5161C111.91 55.6847 110.336 55.7646 108.362 55.7646H107.79C105.835 55.7646 104.281 55.6137 103.117 55.312C101.954 55.0102 101.048 54.6286 100.419 54.176C99.7796 53.7233 99.36 53.2352 99.1597 52.7205C98.9595 52.2057 98.845 51.7353 98.8164 51.3005H88.9462V51.7176C88.9462 52.3477 89.013 53.0311 89.1465 53.7588C89.28 54.4866 89.5661 55.2232 89.9952 55.9687C90.4244 56.7142 91.0442 57.4331 91.8453 58.1254C92.6464 58.8176 93.6954 59.4389 94.9923 59.9802C96.2893 60.5216 97.9009 60.9565 99.8082 61.2849C101.715 61.6132 103.985 61.773 106.608 61.773H109.411C113.207 61.773 116.259 61.4979 118.595 60.9565C120.922 60.4151 122.715 59.6962 123.974 58.7999C125.232 57.9035 126.072 56.9006 126.491 55.7735C126.911 54.6552 127.121 53.5103 127.121 52.3566V51.8241C127.121 50.4396 126.825 49.2326 126.224 48.1942C126.024 47.8392 125.766 47.5197 125.48 47.2091H143.981V13.9543H144ZM22.0864 34.2693V27.9591H18.2623V26.0066H28.7237V27.9591H24.8901V34.2693H22.0864ZM54.2146 30.2844C54.2146 30.5329 54.186 30.7991 54.1383 31.092C54.0906 31.3849 53.9952 31.6866 53.8426 31.9973C53.6901 32.3079 53.4707 32.6008 53.1942 32.8936C52.9176 33.1865 52.5362 33.4439 52.0784 33.6658C51.6207 33.8876 51.0485 34.074 50.3809 34.2071C49.7038 34.3403 48.9028 34.4113 47.9777 34.4113H47.4628C46.5282 34.4113 45.7176 34.3403 45.0405 34.2071C44.3634 34.074 43.8008 33.8876 43.343 33.6658C42.8853 33.4439 42.5134 33.1865 42.2273 32.8936C41.9412 32.6008 41.7314 32.3079 41.5788 31.9973C41.4262 31.6866 41.3309 31.3849 41.2832 31.092C41.2355 30.7991 41.2069 30.524 41.2069 30.2844V29.9471C41.2069 29.6986 41.2355 29.4324 41.2832 29.1306C41.3309 28.8289 41.4262 28.5271 41.5788 28.2342C41.7314 27.9325 41.9507 27.6396 42.2273 27.3556C42.5134 27.0716 42.8853 26.8142 43.343 26.5924C43.8008 26.3705 44.373 26.193 45.0405 26.0599C45.7176 25.9267 46.5187 25.8557 47.4628 25.8557H47.9777C48.9123 25.8557 49.7134 25.9267 50.3809 26.0599C51.0485 26.193 51.6207 26.3705 52.0784 26.5924C52.5457 26.8142 52.9176 27.0716 53.1942 27.3556C53.4707 27.6396 53.6901 27.9325 53.8426 28.2342C53.9952 28.536 54.1001 28.8377 54.1478 29.1306C54.1955 29.4324 54.2241 29.6986 54.2241 29.9471V30.2844H54.2146ZM79.5528 29.9116V30.2489C79.5528 30.5417 79.5147 30.8524 79.4479 31.163C79.3812 31.4736 79.2572 31.7843 79.0856 32.0771C78.9139 32.37 78.6755 32.654 78.3703 32.9203C78.0652 33.1865 77.6837 33.4173 77.226 33.6214C76.7682 33.8255 76.2151 33.9764 75.5666 34.0918C74.9181 34.2071 74.1648 34.2604 73.297 34.2604H67.3939V25.9889H73.2779C74.1362 25.9889 74.8895 26.0421 75.5285 26.1486C76.1674 26.2551 76.7205 26.406 77.1878 26.5835C77.6551 26.7699 78.0366 26.9917 78.3417 27.2402C78.6469 27.4887 78.8853 27.7639 79.0665 28.0567C79.2477 28.3496 79.3717 28.6514 79.4384 28.962C79.5242 29.2904 79.5528 29.601 79.5528 29.9116ZM91.1587 34.2693L95.6503 25.9977H99.2551L104.004 34.2693H101.01L100.171 32.7605H94.7921L93.991 34.2693H91.1587ZM121.361 31.0654V34.2693H118.576V31.0654L113.827 25.9977H117.279L120.035 29.0419L122.839 25.9977H125.976L121.361 31.0654Z" fill="white"/>
<path d="M97.4333 27.7904L95.7834 30.8878H99.1498L97.4333 27.7904Z" fill="white"/>
<path d="M76.053 28.7046C75.8051 28.4916 75.4427 28.3141 74.9754 28.1721C74.4986 28.0301 73.8692 27.9591 73.0681 27.9591H70.1786V32.2813H73.0681C73.8597 32.2813 74.4891 32.2103 74.9564 32.0683C75.4236 31.9263 75.786 31.7488 76.034 31.5358C76.2819 31.3228 76.444 31.092 76.5203 30.8435C76.5966 30.595 76.6348 30.3642 76.6348 30.1512V30.0803C76.6348 29.8761 76.5966 29.6454 76.5299 29.3969C76.4631 29.1484 76.301 28.9176 76.053 28.7046Z" fill="white"/>
</svg>
